<?xml version="1.0" encoding="UTF-8" standalone="no"?><!DOCTYPE svg PUBLIC "-//W3C//DTD SVG 1.1//EN" "http://www.w3.org/Graphics/SVG/1.1/DTD/svg11.dtd"><svg width="100%" height="100%" viewBox="0 0 67 67" version="1.1" xmlns="http://www.w3.org/2000/svg" xmlns:xlink="http://www.w3.org/1999/xlink" xml:space="preserve" xmlns:serif="http://www.serif.com/" style="fill-rule:evenodd;clip-rule:evenodd;stroke-linejoin:round;stroke-miterlimit:2;"><g><path d="M16.667,0l-16.667,0l0,16.667l16.667,-0l-0,-16.667Zm16.666,0l-16.666,0l-0,16.667l16.666,-0l0,-16.667Zm33.334,0l-16.667,0l0,16.667l8.333,-0c4.603,-0 8.334,-3.731 8.334,-8.334l-0,-8.333Zm-16.667,0l-16.667,0l0,16.667l16.667,-0l-0,-16.667Z" style="fill:#2547db;"/><path d="M66.667,58.325c-0,-4.598 -3.728,-8.325 -8.325,-8.325l-0.017,0c-4.598,0 -8.325,3.727 -8.325,8.325l0,0.017c0,4.597 3.727,8.325 8.325,8.325l0.017,-0c4.597,-0 8.325,-3.728 8.325,-8.325l-0,-0.017Z" style="fill:#2cc84d;"/><path d="M18.9,66.667c-1.462,-2.532 -2.233,-5.406 -2.233,-8.334c-0,-9.198 7.468,-16.666 16.666,-16.666c2.705,-0 5.343,0.657 7.698,1.884c2.621,1.405 5.853,0.928 7.956,-1.175c0.152,0.152 0.152,0.152 0.152,0.152c2.228,-2.228 3.193,-5.423 2.568,-8.511c-0.624,-3.089 -2.754,-5.659 -5.673,-6.845c-4.076,-1.319 -8.345,-2.172 -12.701,-2.172c-18.397,-0 -33.333,14.936 -33.333,33.333c0,2.825 0.359,5.624 1.058,8.334" style="fill:#2c2c2c;"/></g></svg>